# xmcd
#
# Track frame offsets:
# 150
# 16086
# 34873
# 54996
# 68639
# 88043
# 107797
# 125680
# 140514
# 157323
# 176603
# 200844
#
# Disc length: 2978 seconds
#
#
# Revision: 2
# Processed by: cddbd v1.5.2PL0 Copyright (c) Steve Scherf et al.
# Submitted via: FreeRIP 2.95 
#
DISCID=aa0ba00c
DTITLE=Marco Mendoza - Live For Tomorrow
DYEAR=2007
DGENRE=Rock
TTITLE0=Not For Me
TTITLE1=Live For Tomorrow
TTITLE2=Lettin' Go
TTITLE3=Look Out For The Boys
TTITLE4=I Want You
TTITLE5=Your Touch
TTITLE6=Let The Sun Shine
TTITLE7=You Got Me
TTITLE8=In My Face
TTITLE9=Broken
TTITLE10=Still In Me
TTITLE11=Dance With Me
EXTD=Promo
EXTT0=
EXTT1=
EXTT2=
EXTT3=
EXTT4=
EXTT5=
EXTT6=
EXTT7=
EXTT8=
EXTT9=
EXTT10=
EXTT11=
PLAYORDER=
